<?xml version="1.0" encoding="UTF-8" standalone="no"?>
<!DOCTYPE svg PUBLIC "-//W3C//DTD SVG 1.1//EN"
 "http://www.w3.org/Graphics/SVG/1.1/DTD/svg11.dtd">
<!-- Generated by graphviz version 8.1.0 (20230707.0739)
 -->
<!-- Title: G Pages: 1 -->
<svg width="825pt" height="277pt"
 viewBox="0.00 0.00 825.45 276.95" xmlns="http://www.w3.org/2000/svg" xmlns:xlink="http://www.w3.org/1999/xlink">
<g id="graph0" class="graph" transform="scale(1 1) rotate(0) translate(21.6 255.35)">
<title>G</title>
<polygon fill="#111111" stroke="none" points="-21.6,21.6 -21.6,-255.35 803.85,-255.35 803.85,21.6 -21.6,21.6"/>
<!-- hooks/redux.hooks.ts -->
<g id="node1" class="node">
<title>hooks/redux.hooks.ts</title>
<path fill="none" stroke="#cfffac" d="M728.96,-23.75C728.96,-23.75 601.29,-23.75 601.29,-23.75 597.33,-23.75 593.38,-19.79 593.38,-15.83 593.38,-15.83 593.38,-7.92 593.38,-7.92 593.38,-3.96 597.33,0 601.29,0 601.29,0 728.96,0 728.96,0 732.92,0 736.88,-3.96 736.88,-7.92 736.88,-7.92 736.88,-15.83 736.88,-15.83 736.88,-19.79 732.92,-23.75 728.96,-23.75"/>
<text text-anchor="middle" x="665.12" y="-6.45" font-family="Arial" font-size="14.00" fill="#cfffac">hooks/redux.hooks.ts</text>
</g>
<!-- navigation/types.ts -->
<g id="node2" class="node">
<title>navigation/types.ts</title>
<path fill="none" stroke="#cfffac" d="M177.58,-107.75C177.58,-107.75 65.67,-107.75 65.67,-107.75 61.71,-107.75 57.75,-103.79 57.75,-99.83 57.75,-99.83 57.75,-91.92 57.75,-91.92 57.75,-87.96 61.71,-84 65.67,-84 65.67,-84 177.58,-84 177.58,-84 181.54,-84 185.5,-87.96 185.5,-91.92 185.5,-91.92 185.5,-99.83 185.5,-99.83 185.5,-103.79 181.54,-107.75 177.58,-107.75"/>
<text text-anchor="middle" x="121.62" y="-90.45" font-family="Arial" font-size="14.00" fill="#cfffac">navigation/types.ts</text>
</g>
<!-- screens/Home/section/Counter.tsx -->
<g id="node3" class="node">
<title>screens/Home/section/Counter.tsx</title>
<path fill="none" stroke="#c6c5fe" d="M498.83,-23.75C498.83,-23.75 292.42,-23.75 292.42,-23.75 288.46,-23.75 284.5,-19.79 284.5,-15.83 284.5,-15.83 284.5,-7.92 284.5,-7.92 284.5,-3.96 288.46,0 292.42,0 292.42,0 498.83,0 498.83,0 502.79,0 506.75,-3.96 506.75,-7.92 506.75,-7.92 506.75,-15.83 506.75,-15.83 506.75,-19.79 502.79,-23.75 498.83,-23.75"/>
<text text-anchor="middle" x="395.62" y="-6.45" font-family="Arial" font-size="14.00" fill="#c6c5fe">screens/Home/section/Counter.tsx</text>
</g>
<!-- screens/Home/section/Counter.tsx&#45;&gt;hooks/redux.hooks.ts -->
<g id="edge1" class="edge">
<title>screens/Home/section/Counter.tsx&#45;&gt;hooks/redux.hooks.ts</title>
<path fill="none" stroke="#757575" d="M506.97,-11.88C532.18,-11.88 558.54,-11.88 582.3,-11.88"/>
<polygon fill="#757575" stroke="#757575" points="582.03,-15.38 592.03,-11.88 582.03,-8.38 582.03,-15.38"/>
</g>
<!-- screens/Home/slices/counter.slice.ts -->
<g id="node4" class="node">
<title>screens/Home/slices/counter.slice.ts</title>
<path fill="none" stroke="#cfffac" d="M774.33,-65.75C774.33,-65.75 555.92,-65.75 555.92,-65.75 551.96,-65.75 548,-61.79 548,-57.83 548,-57.83 548,-49.92 548,-49.92 548,-45.96 551.96,-42 555.92,-42 555.92,-42 774.33,-42 774.33,-42 778.29,-42 782.25,-45.96 782.25,-49.92 782.25,-49.92 782.25,-57.83 782.25,-57.83 782.25,-61.79 778.29,-65.75 774.33,-65.75"/>
<text text-anchor="middle" x="665.12" y="-48.45" font-family="Arial" font-size="14.00" fill="#cfffac">screens/Home/slices/counter.slice.ts</text>
</g>
<!-- screens/Home/section/Counter.tsx&#45;&gt;screens/Home/slices/counter.slice.ts -->
<g id="edge2" class="edge">
<title>screens/Home/section/Counter.tsx&#45;&gt;screens/Home/slices/counter.slice.ts</title>
<path fill="none" stroke="#757575" d="M475.44,-24.25C506.59,-29.14 542.56,-34.79 574.68,-39.83"/>
<polygon fill="#757575" stroke="#757575" points="573.99,-43.42 584.41,-41.52 575.08,-36.51 573.99,-43.42"/>
</g>
<!-- screens/Home/section/Pokemon.tsx -->
<g id="node5" class="node">
<title>screens/Home/section/Pokemon.tsx</title>
<path fill="none" stroke="#c6c5fe" d="M504.08,-107.75C504.08,-107.75 287.17,-107.75 287.17,-107.75 283.21,-107.75 279.25,-103.79 279.25,-99.83 279.25,-99.83 279.25,-91.92 279.25,-91.92 279.25,-87.96 283.21,-84 287.17,-84 287.17,-84 504.08,-84 504.08,-84 508.04,-84 512,-87.96 512,-91.92 512,-91.92 512,-99.83 512,-99.83 512,-103.79 508.04,-107.75 504.08,-107.75"/>
<text text-anchor="middle" x="395.62" y="-90.45" font-family="Arial" font-size="14.00" fill="#c6c5fe">screens/Home/section/Pokemon.tsx</text>
</g>
<!-- screens/Home/services/pokemon.ts -->
<g id="node6" class="node">
<title>screens/Home/services/pokemon.ts</title>
<path fill="none" stroke="#cfffac" d="M772.83,-107.75C772.83,-107.75 557.42,-107.75 557.42,-107.75 553.46,-107.75 549.5,-103.79 549.5,-99.83 549.5,-99.83 549.5,-91.92 549.5,-91.92 549.5,-87.96 553.46,-84 557.42,-84 557.42,-84 772.83,-84 772.83,-84 776.79,-84 780.75,-87.96 780.75,-91.92 780.75,-91.92 780.75,-99.83 780.75,-99.83 780.75,-103.79 776.79,-107.75 772.83,-107.75"/>
<text text-anchor="middle" x="665.12" y="-90.45" font-family="Arial" font-size="14.00" fill="#cfffac">screens/Home/services/pokemon.ts</text>
</g>
<!-- screens/Home/section/Pokemon.tsx&#45;&gt;screens/Home/services/pokemon.ts -->
<g id="edge3" class="edge">
<title>screens/Home/section/Pokemon.tsx&#45;&gt;screens/Home/services/pokemon.ts</title>
<path fill="none" stroke="#757575" d="M512.4,-95.88C520.94,-95.88 529.57,-95.88 538.17,-95.88"/>
<polygon fill="#757575" stroke="#757575" points="538.02,-99.38 548.02,-95.88 538.02,-92.38 538.02,-99.38"/>
</g>
<!-- screens/Home/section/index.ts -->
<g id="node7" class="node">
<title>screens/Home/section/index.ts</title>
<path fill="none" stroke="#c6c5fe" d="M213.96,-65.75C213.96,-65.75 29.29,-65.75 29.29,-65.75 25.33,-65.75 21.38,-61.79 21.38,-57.83 21.38,-57.83 21.38,-49.92 21.38,-49.92 21.38,-45.96 25.33,-42 29.29,-42 29.29,-42 213.96,-42 213.96,-42 217.92,-42 221.88,-45.96 221.88,-49.92 221.88,-49.92 221.88,-57.83 221.88,-57.83 221.88,-61.79 217.92,-65.75 213.96,-65.75"/>
<text text-anchor="middle" x="121.62" y="-48.45" font-family="Arial" font-size="14.00" fill="#c6c5fe">screens/Home/section/index.ts</text>
</g>
<!-- screens/Home/section/index.ts&#45;&gt;screens/Home/section/Counter.tsx -->
<g id="edge4" class="edge">
<title>screens/Home/section/index.ts&#45;&gt;screens/Home/section/Counter.tsx</title>
<path fill="none" stroke="#757575" d="M202.76,-41.5C234.58,-36.59 271.33,-30.91 304.1,-25.85"/>
<polygon fill="#757575" stroke="#757575" points="304.24,-29.22 313.59,-24.23 303.17,-22.3 304.24,-29.22"/>
</g>
<!-- screens/Home/section/index.ts&#45;&gt;screens/Home/section/Pokemon.tsx -->
<g id="edge5" class="edge">
<title>screens/Home/section/index.ts&#45;&gt;screens/Home/section/Pokemon.tsx</title>
<path fill="none" stroke="#757575" d="M202.76,-66.25C234.58,-71.16 271.33,-76.84 304.1,-81.9"/>
<polygon fill="#757575" stroke="#757575" points="303.17,-85.45 313.59,-83.52 304.24,-78.53 303.17,-85.45"/>
</g>
<!-- screens/Home/services/types/index.ts -->
<g id="node8" class="node">
<title>screens/Home/services/types/index.ts</title>
<path fill="none" stroke="#cfffac" d="M235.33,-149.75C235.33,-149.75 7.92,-149.75 7.92,-149.75 3.96,-149.75 0,-145.79 0,-141.83 0,-141.83 0,-133.92 0,-133.92 0,-129.96 3.96,-126 7.92,-126 7.92,-126 235.33,-126 235.33,-126 239.29,-126 243.25,-129.96 243.25,-133.92 243.25,-133.92 243.25,-141.83 243.25,-141.83 243.25,-145.79 239.29,-149.75 235.33,-149.75"/>
<text text-anchor="middle" x="121.62" y="-132.45" font-family="Arial" font-size="14.00" fill="#cfffac">screens/Home/services/types/index.ts</text>
</g>
<!-- screens/index.ts -->
<g id="node9" class="node">
<title>screens/index.ts</title>
<path fill="none" stroke="#cfffac" d="M170.46,-191.75C170.46,-191.75 72.79,-191.75 72.79,-191.75 68.83,-191.75 64.88,-187.79 64.88,-183.83 64.88,-183.83 64.88,-175.92 64.88,-175.92 64.88,-171.96 68.83,-168 72.79,-168 72.79,-168 170.46,-168 170.46,-168 174.42,-168 178.38,-171.96 178.38,-175.92 178.38,-175.92 178.38,-183.83 178.38,-183.83 178.38,-187.79 174.42,-191.75 170.46,-191.75"/>
<text text-anchor="middle" x="121.62" y="-174.45" font-family="Arial" font-size="14.00" fill="#cfffac">screens/index.ts</text>
</g>
<!-- store/index.ts -->
<g id="node10" class="node">
<title>store/index.ts</title>
<path fill="none" stroke="#c6c5fe" d="M435.83,-65.75C435.83,-65.75 355.42,-65.75 355.42,-65.75 351.46,-65.75 347.5,-61.79 347.5,-57.83 347.5,-57.83 347.5,-49.92 347.5,-49.92 347.5,-45.96 351.46,-42 355.42,-42 355.42,-42 435.83,-42 435.83,-42 439.79,-42 443.75,-45.96 443.75,-49.92 443.75,-49.92 443.75,-57.83 443.75,-57.83 443.75,-61.79 439.79,-65.75 435.83,-65.75"/>
<text text-anchor="middle" x="395.62" y="-48.45" font-family="Arial" font-size="14.00" fill="#c6c5fe">store/index.ts</text>
</g>
<!-- store/index.ts&#45;&gt;screens/Home/slices/counter.slice.ts -->
<g id="edge7" class="edge">
<title>store/index.ts&#45;&gt;screens/Home/slices/counter.slice.ts</title>
<path fill="none" stroke="#757575" d="M444.14,-53.88C470.15,-53.88 503.75,-53.88 536.82,-53.88"/>
<polygon fill="#757575" stroke="#757575" points="536.53,-57.38 546.53,-53.88 536.53,-50.38 536.53,-57.38"/>
</g>
<!-- store/index.ts&#45;&gt;screens/Home/services/pokemon.ts -->
<g id="edge6" class="edge">
<title>store/index.ts&#45;&gt;screens/Home/services/pokemon.ts</title>
<path fill="none" stroke="#757575" d="M444.14,-61.34C480.27,-67.01 531.04,-74.98 574.7,-81.83"/>
<polygon fill="#757575" stroke="#757575" points="573.92,-85.41 584.34,-83.51 575.01,-78.5 573.92,-85.41"/>
</g>
<!-- theme/index.ts -->
<g id="node11" class="node">
<title>theme/index.ts</title>
<path fill="none" stroke="#cfffac" d="M165.96,-233.75C165.96,-233.75 77.29,-233.75 77.29,-233.75 73.33,-233.75 69.38,-229.79 69.38,-225.83 69.38,-225.83 69.38,-217.92 69.38,-217.92 69.38,-213.96 73.33,-210 77.29,-210 77.29,-210 165.96,-210 165.96,-210 169.92,-210 173.88,-213.96 173.88,-217.92 173.88,-217.92 173.88,-225.83 173.88,-225.83 173.88,-229.79 169.92,-233.75 165.96,-233.75"/>
<text text-anchor="middle" x="121.62" y="-216.45" font-family="Arial" font-size="14.00" fill="#cfffac">theme/index.ts</text>
</g>
</g>
</svg>
