<?xml version="1.0" encoding="UTF-8" standalone="no"?>
<!DOCTYPE svg PUBLIC "-//W3C//DTD SVG 1.1//EN"
 "http://www.w3.org/Graphics/SVG/1.1/DTD/svg11.dtd">
<!-- Generated by graphviz version 8.1.0 (20230707.0739)
 -->
<!-- Title: G Pages: 1 -->
<svg width="864pt" height="466pt"
 viewBox="0.00 0.00 863.70 465.95" xmlns="http://www.w3.org/2000/svg" xmlns:xlink="http://www.w3.org/1999/xlink">
<g id="graph0" class="graph" transform="scale(1 1) rotate(0) translate(21.6 444.35)">
<title>G</title>
<polygon fill="#111111" stroke="none" points="-21.6,21.6 -21.6,-444.35 842.1,-444.35 842.1,21.6 -21.6,21.6"/>
<!-- hooks/redux.hooks.ts -->
<g id="node1" class="node">
<title>hooks/redux.hooks.ts</title>
<path fill="none" stroke="#cfffac" d="M767.21,-191.75C767.21,-191.75 639.54,-191.75 639.54,-191.75 635.58,-191.75 631.62,-187.79 631.62,-183.83 631.62,-183.83 631.62,-175.92 631.62,-175.92 631.62,-171.96 635.58,-168 639.54,-168 639.54,-168 767.21,-168 767.21,-168 771.17,-168 775.12,-171.96 775.12,-175.92 775.12,-175.92 775.12,-183.83 775.12,-183.83 775.12,-187.79 771.17,-191.75 767.21,-191.75"/>
<text text-anchor="middle" x="703.38" y="-174.45" font-family="Arial" font-size="14.00" fill="#cfffac">hooks/redux.hooks.ts</text>
</g>
<!-- navigation/types.ts -->
<g id="node2" class="node">
<title>navigation/types.ts</title>
<path fill="none" stroke="#cfffac" d="M177.58,-170.75C177.58,-170.75 65.67,-170.75 65.67,-170.75 61.71,-170.75 57.75,-166.79 57.75,-162.83 57.75,-162.83 57.75,-154.92 57.75,-154.92 57.75,-150.96 61.71,-147 65.67,-147 65.67,-147 177.58,-147 177.58,-147 181.54,-147 185.5,-150.96 185.5,-154.92 185.5,-154.92 185.5,-162.83 185.5,-162.83 185.5,-166.79 181.54,-170.75 177.58,-170.75"/>
<text text-anchor="middle" x="121.62" y="-153.45" font-family="Arial" font-size="14.00" fill="#cfffac">navigation/types.ts</text>
</g>
<!-- screens/Home/section/Counter.tsx -->
<g id="node3" class="node">
<title>screens/Home/section/Counter.tsx</title>
<path fill="none" stroke="#c6c5fe" d="M517.96,-149.75C517.96,-149.75 311.54,-149.75 311.54,-149.75 307.58,-149.75 303.62,-145.79 303.62,-141.83 303.62,-141.83 303.62,-133.92 303.62,-133.92 303.62,-129.96 307.58,-126 311.54,-126 311.54,-126 517.96,-126 517.96,-126 521.92,-126 525.88,-129.96 525.88,-133.92 525.88,-133.92 525.88,-141.83 525.88,-141.83 525.88,-145.79 521.92,-149.75 517.96,-149.75"/>
<text text-anchor="middle" x="414.75" y="-132.45" font-family="Arial" font-size="14.00" fill="#c6c5fe">screens/Home/section/Counter.tsx</text>
</g>
<!-- screens/Home/section/Counter.tsx&#45;&gt;hooks/redux.hooks.ts -->
<g id="edge1" class="edge">
<title>screens/Home/section/Counter.tsx&#45;&gt;hooks/redux.hooks.ts</title>
<path fill="none" stroke="#757575" d="M500.2,-150.25C538.38,-155.85 583.32,-162.43 621.12,-167.97"/>
<polygon fill="#757575" stroke="#757575" points="620.18,-171.51 630.58,-169.5 621.19,-164.59 620.18,-171.51"/>
</g>
<!-- screens/Home/slices/counter.slice.ts -->
<g id="node4" class="node">
<title>screens/Home/slices/counter.slice.ts</title>
<path fill="none" stroke="#cfffac" d="M812.58,-149.75C812.58,-149.75 594.17,-149.75 594.17,-149.75 590.21,-149.75 586.25,-145.79 586.25,-141.83 586.25,-141.83 586.25,-133.92 586.25,-133.92 586.25,-129.96 590.21,-126 594.17,-126 594.17,-126 812.58,-126 812.58,-126 816.54,-126 820.5,-129.96 820.5,-133.92 820.5,-133.92 820.5,-141.83 820.5,-141.83 820.5,-145.79 816.54,-149.75 812.58,-149.75"/>
<text text-anchor="middle" x="703.38" y="-132.45" font-family="Arial" font-size="14.00" fill="#cfffac">screens/Home/slices/counter.slice.ts</text>
</g>
<!-- screens/Home/section/Counter.tsx&#45;&gt;screens/Home/slices/counter.slice.ts -->
<g id="edge2" class="edge">
<title>screens/Home/section/Counter.tsx&#45;&gt;screens/Home/slices/counter.slice.ts</title>
<path fill="none" stroke="#757575" d="M526.16,-137.88C542.2,-137.88 558.82,-137.88 575.16,-137.88"/>
<polygon fill="#757575" stroke="#757575" points="574.85,-141.38 584.85,-137.88 574.85,-134.38 574.85,-141.38"/>
</g>
<!-- screens/Home/section/Pokemon.tsx -->
<g id="node5" class="node">
<title>screens/Home/section/Pokemon.tsx</title>
<path fill="none" stroke="#c6c5fe" d="M523.21,-107.75C523.21,-107.75 306.29,-107.75 306.29,-107.75 302.33,-107.75 298.38,-103.79 298.38,-99.83 298.38,-99.83 298.38,-91.92 298.38,-91.92 298.38,-87.96 302.33,-84 306.29,-84 306.29,-84 523.21,-84 523.21,-84 527.17,-84 531.12,-87.96 531.12,-91.92 531.12,-91.92 531.12,-99.83 531.12,-99.83 531.12,-103.79 527.17,-107.75 523.21,-107.75"/>
<text text-anchor="middle" x="414.75" y="-90.45" font-family="Arial" font-size="14.00" fill="#c6c5fe">screens/Home/section/Pokemon.tsx</text>
</g>
<!-- screens/Home/services/pokemon.ts -->
<g id="node6" class="node">
<title>screens/Home/services/pokemon.ts</title>
<path fill="none" stroke="#cfffac" d="M811.08,-107.75C811.08,-107.75 595.67,-107.75 595.67,-107.75 591.71,-107.75 587.75,-103.79 587.75,-99.83 587.75,-99.83 587.75,-91.92 587.75,-91.92 587.75,-87.96 591.71,-84 595.67,-84 595.67,-84 811.08,-84 811.08,-84 815.04,-84 819,-87.96 819,-91.92 819,-91.92 819,-99.83 819,-99.83 819,-103.79 815.04,-107.75 811.08,-107.75"/>
<text text-anchor="middle" x="703.38" y="-90.45" font-family="Arial" font-size="14.00" fill="#cfffac">screens/Home/services/pokemon.ts</text>
</g>
<!-- screens/Home/section/Pokemon.tsx&#45;&gt;screens/Home/services/pokemon.ts -->
<g id="edge3" class="edge">
<title>screens/Home/section/Pokemon.tsx&#45;&gt;screens/Home/services/pokemon.ts</title>
<path fill="none" stroke="#757575" d="M531.51,-95.88C546.38,-95.88 561.67,-95.88 576.7,-95.88"/>
<polygon fill="#757575" stroke="#757575" points="576.59,-99.38 586.59,-95.88 576.59,-92.38 576.59,-99.38"/>
</g>
<!-- screens/Home/section/index.ts -->
<g id="node7" class="node">
<title>screens/Home/section/index.ts</title>
<path fill="none" stroke="#c6c5fe" d="M213.96,-128.75C213.96,-128.75 29.29,-128.75 29.29,-128.75 25.33,-128.75 21.38,-124.79 21.38,-120.83 21.38,-120.83 21.38,-112.92 21.38,-112.92 21.38,-108.96 25.33,-105 29.29,-105 29.29,-105 213.96,-105 213.96,-105 217.92,-105 221.88,-108.96 221.88,-112.92 221.88,-112.92 221.88,-120.83 221.88,-120.83 221.88,-124.79 217.92,-128.75 213.96,-128.75"/>
<text text-anchor="middle" x="121.62" y="-111.45" font-family="Arial" font-size="14.00" fill="#c6c5fe">screens/Home/section/index.ts</text>
</g>
<!-- screens/Home/section/index.ts&#45;&gt;screens/Home/section/Counter.tsx -->
<g id="edge4" class="edge">
<title>screens/Home/section/index.ts&#45;&gt;screens/Home/section/Counter.tsx</title>
<path fill="none" stroke="#757575" d="M222,-124.04C244.71,-125.68 269.1,-127.44 292.61,-129.14"/>
<polygon fill="#757575" stroke="#757575" points="292.11,-132.68 302.34,-129.91 292.62,-125.7 292.11,-132.68"/>
</g>
<!-- screens/Home/section/index.ts&#45;&gt;screens/Home/section/Pokemon.tsx -->
<g id="edge5" class="edge">
<title>screens/Home/section/index.ts&#45;&gt;screens/Home/section/Pokemon.tsx</title>
<path fill="none" stroke="#757575" d="M222,-109.71C243.02,-108.19 265.48,-106.57 287.34,-104.99"/>
<polygon fill="#757575" stroke="#757575" points="287.3,-108.43 297.02,-104.22 286.8,-101.45 287.3,-108.43"/>
</g>
<!-- screens/Home/services/types/index.ts -->
<g id="node8" class="node">
<title>screens/Home/services/types/index.ts</title>
<path fill="none" stroke="#cfffac" d="M235.33,-212.75C235.33,-212.75 7.92,-212.75 7.92,-212.75 3.96,-212.75 0,-208.79 0,-204.83 0,-204.83 0,-196.92 0,-196.92 0,-192.96 3.96,-189 7.92,-189 7.92,-189 235.33,-189 235.33,-189 239.29,-189 243.25,-192.96 243.25,-196.92 243.25,-196.92 243.25,-204.83 243.25,-204.83 243.25,-208.79 239.29,-212.75 235.33,-212.75"/>
<text text-anchor="middle" x="121.62" y="-195.45" font-family="Arial" font-size="14.00" fill="#cfffac">screens/Home/services/types/index.ts</text>
</g>
<!-- screens/Login/services/login.ts -->
<g id="node9" class="node">
<title>screens/Login/services/login.ts</title>
<path fill="none" stroke="#cfffac" d="M795.33,-23.75C795.33,-23.75 611.42,-23.75 611.42,-23.75 607.46,-23.75 603.5,-19.79 603.5,-15.83 603.5,-15.83 603.5,-7.92 603.5,-7.92 603.5,-3.96 607.46,0 611.42,0 611.42,0 795.33,0 795.33,0 799.29,0 803.25,-3.96 803.25,-7.92 803.25,-7.92 803.25,-15.83 803.25,-15.83 803.25,-19.79 799.29,-23.75 795.33,-23.75"/>
<text text-anchor="middle" x="703.38" y="-6.45" font-family="Arial" font-size="14.00" fill="#cfffac">screens/Login/services/login.ts</text>
</g>
<!-- screens/Login/services/types/Trequest.ts -->
<g id="node10" class="node">
<title>screens/Login/services/types/Trequest.ts</title>
<path fill="none" stroke="#cfffac" d="M537.08,-275.75C537.08,-275.75 292.42,-275.75 292.42,-275.75 288.46,-275.75 284.5,-271.79 284.5,-267.83 284.5,-267.83 284.5,-259.92 284.5,-259.92 284.5,-255.96 288.46,-252 292.42,-252 292.42,-252 537.08,-252 537.08,-252 541.04,-252 545,-255.96 545,-259.92 545,-259.92 545,-267.83 545,-267.83 545,-271.79 541.04,-275.75 537.08,-275.75"/>
<text text-anchor="middle" x="414.75" y="-258.45" font-family="Arial" font-size="14.00" fill="#cfffac">screens/Login/services/types/Trequest.ts</text>
</g>
<!-- screens/Login/services/types/Tresponse.ts -->
<g id="node11" class="node">
<title>screens/Login/services/types/Tresponse.ts</title>
<path fill="none" stroke="#cfffac" d="M542.33,-233.75C542.33,-233.75 287.17,-233.75 287.17,-233.75 283.21,-233.75 279.25,-229.79 279.25,-225.83 279.25,-225.83 279.25,-217.92 279.25,-217.92 279.25,-213.96 283.21,-210 287.17,-210 287.17,-210 542.33,-210 542.33,-210 546.29,-210 550.25,-213.96 550.25,-217.92 550.25,-217.92 550.25,-225.83 550.25,-225.83 550.25,-229.79 546.29,-233.75 542.33,-233.75"/>
<text text-anchor="middle" x="414.75" y="-216.45" font-family="Arial" font-size="14.00" fill="#cfffac">screens/Login/services/types/Tresponse.ts</text>
</g>
<!-- screens/Login/services/types/index.ts -->
<g id="node12" class="node">
<title>screens/Login/services/types/index.ts</title>
<path fill="none" stroke="#c6c5fe" d="M233.46,-254.75C233.46,-254.75 9.79,-254.75 9.79,-254.75 5.83,-254.75 1.88,-250.79 1.88,-246.83 1.88,-246.83 1.88,-238.92 1.88,-238.92 1.88,-234.96 5.83,-231 9.79,-231 9.79,-231 233.46,-231 233.46,-231 237.42,-231 241.38,-234.96 241.38,-238.92 241.38,-238.92 241.38,-246.83 241.38,-246.83 241.38,-250.79 237.42,-254.75 233.46,-254.75"/>
<text text-anchor="middle" x="121.62" y="-237.45" font-family="Arial" font-size="14.00" fill="#c6c5fe">screens/Login/services/types/index.ts</text>
</g>
<!-- screens/Login/services/types/index.ts&#45;&gt;screens/Login/services/types/Trequest.ts -->
<g id="edge6" class="edge">
<title>screens/Login/services/types/index.ts&#45;&gt;screens/Login/services/types/Trequest.ts</title>
<path fill="none" stroke="#757575" d="M241.46,-251.45C252.07,-252.21 262.88,-252.99 273.65,-253.77"/>
<polygon fill="#757575" stroke="#757575" points="273.17,-257.32 283.39,-254.54 273.67,-250.33 273.17,-257.32"/>
</g>
<!-- screens/Login/services/types/index.ts&#45;&gt;screens/Login/services/types/Tresponse.ts -->
<g id="edge7" class="edge">
<title>screens/Login/services/types/index.ts&#45;&gt;screens/Login/services/types/Tresponse.ts</title>
<path fill="none" stroke="#757575" d="M241.46,-234.3C250.29,-233.67 259.25,-233.02 268.22,-232.37"/>
<polygon fill="#757575" stroke="#757575" points="268.42,-235.79 278.15,-231.58 267.92,-228.81 268.42,-235.79"/>
</g>
<!-- screens/Login/slices/auth.slice.ts -->
<g id="node13" class="node">
<title>screens/Login/slices/auth.slice.ts</title>
<path fill="none" stroke="#cfffac" d="M801.71,-65.75C801.71,-65.75 605.04,-65.75 605.04,-65.75 601.08,-65.75 597.12,-61.79 597.12,-57.83 597.12,-57.83 597.12,-49.92 597.12,-49.92 597.12,-45.96 601.08,-42 605.04,-42 605.04,-42 801.71,-42 801.71,-42 805.67,-42 809.62,-45.96 809.62,-49.92 809.62,-49.92 809.62,-57.83 809.62,-57.83 809.62,-61.79 805.67,-65.75 801.71,-65.75"/>
<text text-anchor="middle" x="703.38" y="-48.45" font-family="Arial" font-size="14.00" fill="#cfffac">screens/Login/slices/auth.slice.ts</text>
</g>
<!-- screens/Login/styles.ts -->
<g id="node14" class="node">
<title>screens/Login/styles.ts</title>
<path fill="none" stroke="#cfffac" d="M189.96,-296.75C189.96,-296.75 53.29,-296.75 53.29,-296.75 49.33,-296.75 45.38,-292.79 45.38,-288.83 45.38,-288.83 45.38,-280.92 45.38,-280.92 45.38,-276.96 49.33,-273 53.29,-273 53.29,-273 189.96,-273 189.96,-273 193.92,-273 197.88,-276.96 197.88,-280.92 197.88,-280.92 197.88,-288.83 197.88,-288.83 197.88,-292.79 193.92,-296.75 189.96,-296.75"/>
<text text-anchor="middle" x="121.62" y="-279.45" font-family="Arial" font-size="14.00" fill="#cfffac">screens/Login/styles.ts</text>
</g>
<!-- screens/Profile/styles.ts -->
<g id="node15" class="node">
<title>screens/Profile/styles.ts</title>
<path fill="none" stroke="#cfffac" d="M192.58,-338.75C192.58,-338.75 50.67,-338.75 50.67,-338.75 46.71,-338.75 42.75,-334.79 42.75,-330.83 42.75,-330.83 42.75,-322.92 42.75,-322.92 42.75,-318.96 46.71,-315 50.67,-315 50.67,-315 192.58,-315 192.58,-315 196.54,-315 200.5,-318.96 200.5,-322.92 200.5,-322.92 200.5,-330.83 200.5,-330.83 200.5,-334.79 196.54,-338.75 192.58,-338.75"/>
<text text-anchor="middle" x="121.62" y="-321.45" font-family="Arial" font-size="14.00" fill="#cfffac">screens/Profile/styles.ts</text>
</g>
<!-- screens/index.ts -->
<g id="node16" class="node">
<title>screens/index.ts</title>
<path fill="none" stroke="#cfffac" d="M170.46,-380.75C170.46,-380.75 72.79,-380.75 72.79,-380.75 68.83,-380.75 64.88,-376.79 64.88,-372.83 64.88,-372.83 64.88,-364.92 64.88,-364.92 64.88,-360.96 68.83,-357 72.79,-357 72.79,-357 170.46,-357 170.46,-357 174.42,-357 178.38,-360.96 178.38,-364.92 178.38,-364.92 178.38,-372.83 178.38,-372.83 178.38,-376.79 174.42,-380.75 170.46,-380.75"/>
<text text-anchor="middle" x="121.62" y="-363.45" font-family="Arial" font-size="14.00" fill="#cfffac">screens/index.ts</text>
</g>
<!-- store/index.ts -->
<g id="node17" class="node">
<title>store/index.ts</title>
<path fill="none" stroke="#c6c5fe" d="M454.96,-65.75C454.96,-65.75 374.54,-65.75 374.54,-65.75 370.58,-65.75 366.62,-61.79 366.62,-57.83 366.62,-57.83 366.62,-49.92 366.62,-49.92 366.62,-45.96 370.58,-42 374.54,-42 374.54,-42 454.96,-42 454.96,-42 458.92,-42 462.88,-45.96 462.88,-49.92 462.88,-49.92 462.88,-57.83 462.88,-57.83 462.88,-61.79 458.92,-65.75 454.96,-65.75"/>
<text text-anchor="middle" x="414.75" y="-48.45" font-family="Arial" font-size="14.00" fill="#c6c5fe">store/index.ts</text>
</g>
<!-- store/index.ts&#45;&gt;screens/Home/slices/counter.slice.ts -->
<g id="edge9" class="edge">
<title>store/index.ts&#45;&gt;screens/Home/slices/counter.slice.ts</title>
<path fill="none" stroke="#757575" d="M463.18,-53.33C490.2,-54.9 523.83,-60.15 550.25,-74.88 571.72,-86.85 564.92,-104.65 586.25,-116.88 589.13,-118.53 592.12,-120.06 595.18,-121.47"/>
<polygon fill="#757575" stroke="#757575" points="593.61,-125.02 604.19,-125.6 596.28,-118.55 593.61,-125.02"/>
</g>
<!-- store/index.ts&#45;&gt;screens/Home/services/pokemon.ts -->
<g id="edge8" class="edge">
<title>store/index.ts&#45;&gt;screens/Home/services/pokemon.ts</title>
<path fill="none" stroke="#757575" d="M463.08,-60.81C502.18,-66.54 558.92,-74.85 607.34,-81.95"/>
<polygon fill="#757575" stroke="#757575" points="606.77,-85.55 617.17,-83.54 607.78,-78.62 606.77,-85.55"/>
</g>
<!-- store/index.ts&#45;&gt;screens/Login/services/login.ts -->
<g id="edge10" class="edge">
<title>store/index.ts&#45;&gt;screens/Login/services/login.ts</title>
<path fill="none" stroke="#757575" d="M463.08,-46.94C502.18,-41.21 558.92,-32.9 607.34,-25.8"/>
<polygon fill="#757575" stroke="#757575" points="607.78,-29.13 617.17,-24.21 606.77,-22.2 607.78,-29.13"/>
</g>
<!-- store/index.ts&#45;&gt;screens/Login/slices/auth.slice.ts -->
<g id="edge11" class="edge">
<title>store/index.ts&#45;&gt;screens/Login/slices/auth.slice.ts</title>
<path fill="none" stroke="#757575" d="M463.08,-53.88C496.5,-53.88 542.81,-53.88 585.79,-53.88"/>
<polygon fill="#757575" stroke="#757575" points="585.64,-57.38 595.64,-53.88 585.64,-50.38 585.64,-57.38"/>
</g>
<!-- theme/index.ts -->
<g id="node18" class="node">
<title>theme/index.ts</title>
<path fill="none" stroke="#cfffac" d="M165.96,-422.75C165.96,-422.75 77.29,-422.75 77.29,-422.75 73.33,-422.75 69.38,-418.79 69.38,-414.83 69.38,-414.83 69.38,-406.92 69.38,-406.92 69.38,-402.96 73.33,-399 77.29,-399 77.29,-399 165.96,-399 165.96,-399 169.92,-399 173.88,-402.96 173.88,-406.92 173.88,-406.92 173.88,-414.83 173.88,-414.83 173.88,-418.79 169.92,-422.75 165.96,-422.75"/>
<text text-anchor="middle" x="121.62" y="-405.45" font-family="Arial" font-size="14.00" fill="#cfffac">theme/index.ts</text>
</g>
</g>
</svg>
